<svg width="16" height="14" viewBox="0 0 16 14" fill="none" xmlns="http://www.w3.org/2000/svg">
    <path d="M7.99935 3.33182C9.83935 3.33182 11.3327 4.82516 11.3327 6.66516C11.3327 7.00516 11.266 7.33182 11.1727 7.63849L13.2127 9.67849C14.1393 8.85849 14.8727 7.83182 15.3327 6.65849C14.1793 3.73849 11.3327 1.66516 7.99935 1.66516C7.15268 1.66516 6.33935 1.79849 5.57268 2.04516L7.01935 3.49182C7.33268 3.39849 7.65935 3.33182 7.99935 3.33182ZM1.80602 1.10516C1.54602 1.36516 1.54602 1.78516 1.80602 2.04516L3.11935 3.35849C2.03935 4.21849 1.17935 5.35182 0.666016 6.66516C1.81935 9.59182 4.66602 11.6652 7.99935 11.6652C9.01268 11.6652 9.97935 11.4652 10.8727 11.1185L12.686 12.9318C12.946 13.1918 13.366 13.1918 13.626 12.9318C13.886 12.6718 13.886 12.2518 13.626 11.9918L2.75268 1.10516C2.49268 0.845156 2.06602 0.845156 1.80602 1.10516ZM7.99935 9.99849C6.15935 9.99849 4.66602 8.50516 4.66602 6.66516C4.66602 6.15182 4.78602 5.66516 4.99268 5.23849L6.03935 6.28516C6.01935 6.40516 5.99935 6.53182 5.99935 6.66516C5.99935 7.77182 6.89268 8.66516 7.99935 8.66516C8.13268 8.66516 8.25268 8.64516 8.37935 8.61849L9.42601 9.66516C8.99268 9.87849 8.51268 9.99849 7.99935 9.99849ZM9.97935 6.44516C9.87935 5.51182 9.14602 4.78516 8.21935 4.68516L9.97935 6.44516Z" fill="#858585"/>
</svg>
