<svg width="19" height="10" viewBox="0 0 19 10" fill="none" xmlns="http://www.w3.org/2000/svg">
<path d="M9.56876 0C5.59736 0 2.2058 2.07333 0.831696 5C2.2058 7.92667 5.59736 10 9.56876 10C13.5401 10 16.9317 7.92667 18.3058 5C16.9317 2.07333 13.5401 0 9.56876 0ZM9.56876 8.33333C7.37655 8.33333 5.59736 6.84 5.59736 5C5.59736 3.16 7.37655 1.66667 9.56876 1.66667C11.761 1.66667 13.5401 3.16 13.5401 5C13.5401 6.84 11.761 8.33333 9.56876 8.33333ZM9.56876 3C8.25025 3 7.18592 3.89333 7.18592 5C7.18592 6.10667 8.25025 7 9.56876 7C10.8873 7 11.9516 6.10667 11.9516 5C11.9516 3.89333 10.8873 3 9.56876 3Z" fill="#858585"/>
</svg>
